<svg xmlns="http://www.w3.org/2000/svg" viewBox="0 0 1000 400" style="enable-background:new 0 0 1000 400" xml:space="preserve">
    <switch>
        <g>
            <path style="fill:#cb2238" d="M879.6 161.3 500 7.7 120.4 161.3H10.2l19.7 30.9h96.5L500 40.9l373.6 151.3h96.5l19.7-30.9z"/>
            <path d="m960.2 207.8-19.6 30.9h-61L500 392.3 120.4 238.7h-61l-19.6-30.9h86.6L500 359.1l373.6-151.3z"/>
            <path d="M261.9 161.2c0-4.2 3.5-6.5 8.1-6.5h21.3c13.2 0 17.8 5.1 17.8 12.2 0 6.4-2.3 10.2-7.5 14.3 6.1 3.6 9.7 9.5 9.7 16.1 0 9.1-7.9 15.7-18 15.7h-22.7c-6 0-8.6-2.2-8.8-6.3v-45.5zm16.1 13.4 3.7.5c2.2.3 4.5.7 6.8.7 3.9 0 5.9-2.8 5.9-5.4 0-2.3-1.8-3.6-5.4-3.6h-11v7.8zm0 26.3h10c4.4 0 7.3-2 7.3-5.9 0-5.8-11.4-8.6-17.3-8.7v14.6zM373.7 187.5c.3 1.9.3 3.8.3 5.8 0 11.7-11.7 20.1-27.6 20.1-16 0-27.6-8.4-27.6-20.1 0-2 0-3.9.3-5.8l3.1-23.5c.7-5.4 2.1-9.6 8.1-9.6 5.1 0 8.3 2.6 8.3 7.3 0 9.7-3.3 19.2-3.3 28.9 0 6 3.9 9.7 11.2 9.7 7.3 0 11.2-3.7 11.2-9.7 0-9.7-3.3-19.2-3.3-28.9 0-4.7 3.3-7.3 8.3-7.3 6 0 7.5 4.1 8.1 9.6l2.9 23.5zM383.5 162.5c0-4.6 2.8-8 8-8s8 3.5 8 8v42.6c0 4.6-2.8 8-8 8s-8-3.5-8-8v-42.6zM413.3 162.4c0-4.5 2.8-8 8-8 5.3 0 8 3.5 8 8v37.5h17.8c4.6 0 8.2 2.2 8.2 6.5 0 4.2-3.6 6.5-8.2 6.5H424c-8 0-10.6-3.6-10.6-8.1v-42.4zM493 154.7c4.5 0 7.9 2.1 7.9 6.3 0 4.1-3.4 6.3-7.9 6.3h-8.7v38c0 4.5-2.8 8-8 8s-8-3.5-8-8v-38h-8.7c-4.5 0-7.9-2.2-7.9-6.3s3.4-6.3 7.9-6.3H493zM511.6 196.9c-5.1 0-7.5-2.3-7.5-6.6s2.4-6.6 7.5-6.6h15.1c5.1 0 7.5 2.3 7.5 6.6s-2.4 6.6-7.5 6.6h-15.1zM574.1 174.6c9.4-13 6-20.2 16.1-20.2 6.6 0 9 3.6 10.2 8.5 3.2 12.4 3.6 28 3.6 40.6 0 4.9-.7 9.6-7.7 9.6-7.1 0-7.7-4.7-7.7-9.6v-11.1c0-5.1-.5-10-.8-15h-.2c-2.7 5-6 13.6-13.5 13.6s-10.8-8.6-13.5-13.6h-.2c-.3 5-.8 9.9-.8 15v11.1c0 4.9-.7 9.6-7.7 9.6-7.1 0-7.7-4.7-7.7-9.6 0-12.6.5-28.3 3.6-40.6 1.2-4.9 3.6-8.5 10.2-8.5 10 0 6.7 7.2 16.1 20.2zM675.5 183.8c0 15.4-9.8 29.6-31.6 29.6s-31.6-14.2-31.6-29.6c0-15.4 9.8-29.6 31.6-29.6 21.9 0 31.6 14.2 31.6 29.6zm-46.1 0c0 9.6 5.4 16.6 14.5 16.6 9.2 0 14.5-6.9 14.5-16.6 0-9.6-5.4-16.6-14.5-16.6s-14.5 6.9-14.5 16.6zM684.8 163.8c0-6.5 2.6-9.1 10.3-9.1h21.3c12 0 19.2 4.2 19.2 13.1 0 6.4-3.7 10.2-9.3 14.3 7.2 5.6 11.8 14.6 11.8 22.3 0 5.1-1.7 8.8-7.4 8.8-14.3 0-.6-25.6-29.8-25.6v17.7c0 4.5-2.9 8-8.1 8-5.2 0-8.1-3.5-8.1-8v-41.5zm16.1 11.2c4.4 0 10 .8 12.4.8 2.8 0 5.6-3.9 5.6-5.8s-1.7-2.8-4.8-2.8h-13.2v7.8zM375.6 231.6c0-2.3 1.9-3.5 4.4-3.5h11.5c7.1 0 9.6 2.8 9.6 6.6 0 3.5-1.2 5.5-4 7.7 3.3 2 5.2 5.1 5.2 8.7 0 4.9-4.3 8.5-9.7 8.5h-12.3c-3.3 0-4.7-1.2-4.8-3.4v-24.6zm8.7 7.2 2 .3c1.2.2 2.4.4 3.7.4 2.1 0 3.2-1.5 3.2-2.9 0-1.2-1-2-2.9-2h-6v4.2zm0 14.3h5.4c2.4 0 3.9-1.1 3.9-3.2 0-3.2-6.2-4.7-9.4-4.7v7.9zM436.1 245.8c.2 1.1.2 2.1.2 3.2 0 6.3-6.3 10.9-15 10.9s-15-4.5-15-10.9c0-1.1 0-2.1.2-3.2l1.7-12.7c.4-2.9 1.1-5.2 4.4-5.2 2.7 0 4.5 1.4 4.5 3.9 0 5.3-1.8 10.4-1.8 15.7 0 3.3 2.1 5.3 6.1 5.3s6.1-2 6.1-5.3c0-5.3-1.8-10.4-1.8-15.7 0-2.5 1.8-3.9 4.5-3.9 3.3 0 4 2.2 4.4 5.2l1.5 12.7zM441.5 232.2c0-2.5 1.5-4.4 4.3-4.4s4.3 1.9 4.3 4.4v23.1c0 2.5-1.5 4.4-4.3 4.4s-4.3-1.9-4.3-4.4v-23.1zM456.3 232.2c0-2.4 1.5-4.3 4.3-4.3s4.3 1.9 4.3 4.3v20.3h9.6c2.5 0 4.5 1.2 4.5 3.5s-2 3.5-4.5 3.5H462c-4.3 0-5.7-1.9-5.7-4.4v-22.9zM482 232.5c0-3.3 2.3-4.4 7.3-4.4 13.8 0 22.7 7.1 22.7 18.1 0 8.5-6.4 13.4-15.4 13.4h-9.5c-3.6 0-5.1-1.5-5.1-3.3v-23.8zm8.7 20h4.2c3 0 7.9-.4 7.9-7 0-6.3-5.2-10.3-12.1-10.4v17.4zM516.3 232.2c0-2.5 1.5-4.4 4.3-4.4s4.3 1.9 4.3 4.4v23.1c0 2.5-1.5 4.4-4.3 4.4s-4.3-1.9-4.3-4.4v-23.1zM551 232.2c0-2.5 1.6-4.4 4.3-4.4s4.1 1.9 4.1 4.4v23.2c0 2.3-1.5 4.2-4.2 4.2-6.4 0-5.7-10.2-15.9-19.9h-.1v15.7c0 2.3-1.5 4.2-4.2 4.2s-4.2-1.9-4.2-4.2V232c0-2.9 2-4.2 5.1-4.2 5.4 0 15.1 15.4 15.1 15.4v-11zM594.4 255.6c0 4-3.5 4.3-7.1 4.3-14.5 0-23.4-7.2-23.4-19.2 0-7.6 5.7-12.6 14.2-12.6h10.5c2.5 0 4.5 1.2 4.5 3.5s-2 3.5-4.5 3.5H579c-4.2 0-6.5 2.4-6.5 6.2 0 6.4 6.2 11.2 13.4 11.2v-7.1h-4.7c-2.4 0-4.3-1.2-4.3-3.4s1.9-3.4 4.3-3.4h8.6c3.2 0 4.5 1.7 4.5 4v13zM613.8 252.5c2.8 0 3.7-1.7 3.7-3 0-6-18.9-.6-18.9-12.7 0-5.8 5-8.7 11.1-8.7h10.4c2.5 0 4.5 1.2 4.5 3.5s-2 3.5-4.5 3.5h-8.9c-1.1 0-2.5.1-2.5 1.2 0 3.5 18.5.5 18.5 12.7 0 7.6-6.3 10.6-14.1 10.6h-10.6c-2.5 0-4.5-1.2-4.5-3.5s2-3.5 4.5-3.5h11.3z"/>
        </g>
    </switch>
</svg>
