<svg data-name="Layer 1" xmlns="http://www.w3.org/2000/svg" viewBox="0 0 920 341.964">
    <path style="fill:#cb2238" d="m920 149.888-20.331 29.763H812.13l-54.725-22.929L460 32.248 162.595 156.722l-54.725 22.929H20.331L0 149.888h101.883L460 0l358.117 149.888H920z"/>
    <path d="m894.868 197.046-22.703 29.763h-69.184L460 341.964 117.019 226.809H47.835l-22.703-29.763h96.687l88.668 29.763L460 310.62l249.513-83.811 88.667-29.763h96.688zM356.518 139.506v-38.408h13.228a32.255 32.255 0 0 1 6.839.551 12.985 12.985 0 0 1 5.631 2.752 15.63 15.63 0 0 1 4.547 6.564 25.775 25.775 0 0 1 1.506 9.127 26.71 26.71 0 0 1-1.023 7.755 18.625 18.625 0 0 1-2.62 5.592 13.824 13.824 0 0 1-3.497 3.486 14.176 14.176 0 0 1-4.583 1.925 26.232 26.232 0 0 1-6.171.656Zm5.082-4.534h8.201a19.82 19.82 0 0 0 5.96-.706 8.568 8.568 0 0 0 3.444-1.99 12.132 12.132 0 0 0 2.815-4.86 23.744 23.744 0 0 0 1.01-7.401q0-6.023-1.978-9.26a9.969 9.969 0 0 0-4.809-4.335 19.843 19.843 0 0 0-6.574-.789H361.6ZM393.718 120.798q0-9.555 5.135-14.968a17.463 17.463 0 0 1 13.259-5.41 18.392 18.392 0 0 1 9.585 2.542 16.556 16.556 0 0 1 6.51 7.087 22.983 22.983 0 0 1 2.243 10.308 22.622 22.622 0 0 1-2.36 10.451 16.117 16.117 0 0 1-6.68 6.983 19.059 19.059 0 0 1-9.326 2.371 18.191 18.191 0 0 1-9.693-2.62 16.875 16.875 0 0 1-6.472-7.153 21.674 21.674 0 0 1-2.2-9.59Zm5.24.083q0 6.941 3.734 10.937a13.029 13.029 0 0 0 18.81-.039q3.706-4.037 3.709-11.45a19.655 19.655 0 0 0-1.586-8.184 12.203 12.203 0 0 0-4.638-5.428 12.607 12.607 0 0 0-6.85-1.924 12.998 12.998 0 0 0-9.288 3.706q-3.889 3.715-3.891 12.382ZM462.199 101.098h5.085v22.193a26.165 26.165 0 0 1-1.313 9.194 11.206 11.206 0 0 1-4.727 5.543 16.753 16.753 0 0 1-8.973 2.134 18.502 18.502 0 0 1-8.83-1.858 10.615 10.615 0 0 1-4.898-5.389 25.596 25.596 0 0 1-1.467-9.624v-22.193h5.08v22.166a21.563 21.563 0 0 0 .932 7.374 7.041 7.041 0 0 0 3.196 3.656 11.086 11.086 0 0 0 5.54 1.285q5.61 0 7.992-2.542 2.382-2.54 2.382-9.773ZM475.534 139.506v-38.408h14.412a17.827 17.827 0 0 1 7.06 1.169 9.087 9.087 0 0 1 4.163 3.59 9.46 9.46 0 0 1 1.506 5.069 8.666 8.666 0 0 1-1.335 4.633 9.501 9.501 0 0 1-4.031 3.513 10.017 10.017 0 0 1 5.355 3.486 9.336 9.336 0 0 1 1.875 5.813 11.209 11.209 0 0 1-1.141 5.019 9.715 9.715 0 0 1-2.819 3.574 11.782 11.782 0 0 1-4.202 1.902 25.756 25.756 0 0 1-6.194.64Zm5.085-22.27h8.306a18.497 18.497 0 0 0 4.843-.442 5.41 5.41 0 0 0 2.923-1.914 5.492 5.492 0 0 0 .982-3.353 6.153 6.153 0 0 0-.916-3.364 4.637 4.637 0 0 0-2.62-1.991 21.825 21.825 0 0 0-5.84-.54h-7.677Zm0 17.736h9.564a22.245 22.245 0 0 0 3.458-.182 8.279 8.279 0 0 0 2.934-1.047 5.615 5.615 0 0 0 1.936-2.135 6.67 6.67 0 0 0 .761-3.237 6.398 6.398 0 0 0-1.103-3.734 5.79 5.79 0 0 0-3.05-2.223 18.843 18.843 0 0 0-5.62-.645h-8.88ZM511.317 139.506v-38.408h5.086v33.874h18.911v4.534ZM541.475 139.506v-38.408h27.77v4.533h-22.69v11.764h21.244v4.506h-21.244v13.071h23.577v4.534Z"/>
    <path  d="m238.378 191.807 5.082 1.285a17.133 17.133 0 0 1-5.75 9.553 15.86 15.86 0 0 1-10.154 3.287 18.23 18.23 0 0 1-10.098-2.532 15.785 15.785 0 0 1-5.92-7.318 26.134 26.134 0 0 1-2.03-10.297 22.65 22.65 0 0 1 2.29-10.468 15.72 15.72 0 0 1 6.525-6.784 19.061 19.061 0 0 1 9.313-2.317 15.735 15.735 0 0 1 9.693 2.934 15.223 15.223 0 0 1 5.477 8.251l-5.005 1.18a11.868 11.868 0 0 0-3.878-6.105 10.337 10.337 0 0 0-6.392-1.914 12.403 12.403 0 0 0-7.401 2.124 11.213 11.213 0 0 0-4.178 5.697 22.958 22.958 0 0 0-1.205 7.374 23.398 23.398 0 0 0 1.428 8.554 10.615 10.615 0 0 0 4.44 5.46 12.427 12.427 0 0 0 6.522 1.809 10.942 10.942 0 0 0 7.23-2.46 12.61 12.61 0 0 0 4.01-7.313ZM248.013 186.568q0-9.555 5.135-14.969a17.463 17.463 0 0 1 13.258-5.41 18.391 18.391 0 0 1 9.586 2.543 16.555 16.555 0 0 1 6.51 7.087 22.982 22.982 0 0 1 2.243 10.308 22.622 22.622 0 0 1-2.36 10.452 16.117 16.117 0 0 1-6.68 6.982 19.06 19.06 0 0 1-9.326 2.371 18.191 18.191 0 0 1-9.693-2.62 16.875 16.875 0 0 1-6.472-7.153 21.674 21.674 0 0 1-2.201-9.591Zm5.24.083q0 6.94 3.734 10.936a13.029 13.029 0 0 0 18.81-.038q3.706-4.037 3.709-11.45a19.655 19.655 0 0 0-1.586-8.185 12.202 12.202 0 0 0-4.638-5.427 12.607 12.607 0 0 0-6.85-1.925 12.998 12.998 0 0 0-9.288 3.707q-3.889 3.714-3.892 12.382ZM290.922 205.276v-38.409h5.082v33.875h18.915v4.534ZM346.011 166.867h5.082v22.194a26.235 26.235 0 0 1-1.31 9.194 11.212 11.212 0 0 1-4.729 5.542 16.743 16.743 0 0 1-8.97 2.135 18.502 18.502 0 0 1-8.83-1.859 10.615 10.615 0 0 1-4.898-5.388 25.593 25.593 0 0 1-1.467-9.624v-22.194h5.08v22.166a21.566 21.566 0 0 0 .932 7.374 7.042 7.042 0 0 0 3.196 3.657 11.086 11.086 0 0 0 5.54 1.285q5.605 0 7.992-2.543 2.382-2.54 2.382-9.773ZM359.24 205.276v-38.409h7.65l9.089 27.196q1.257 3.797 1.836 5.686.654-2.1 2.04-6.155l9.197-26.727h6.837v38.409h-4.898v-32.144l-11.16 32.143h-4.586l-11.108-32.694v32.695ZM403.875 205.276v-38.409h5.211l20.175 30.158v-30.158h4.87v38.409h-5.212l-20.172-30.18v30.18ZM450.082 205.276l14.747-38.409h5.477l15.719 38.409h-5.791l-4.479-11.632h-16.06l-4.22 11.632Zm11.08-15.774h13.021l-4.01-10.633q-1.828-4.848-2.724-7.964a48.906 48.906 0 0 1-2.069 7.335ZM489.874 205.276v-38.409h5.212l20.175 30.158v-30.158h4.87v38.409h-5.212l-20.175-30.18v30.18ZM555.914 191.807l5.08 1.285a17.145 17.145 0 0 1-5.747 9.553 15.866 15.866 0 0 1-10.153 3.287 18.224 18.224 0 0 1-10.099-2.532 15.806 15.806 0 0 1-5.923-7.318 26.182 26.182 0 0 1-2.03-10.297 22.65 22.65 0 0 1 2.294-10.468 15.706 15.706 0 0 1 6.525-6.784 19.058 19.058 0 0 1 9.31-2.316 15.737 15.737 0 0 1 9.695 2.934 15.223 15.223 0 0 1 5.477 8.25l-5.008 1.18a11.85 11.85 0 0 0-3.877-6.105 10.331 10.331 0 0 0-6.392-1.914 12.41 12.41 0 0 0-7.402 2.124 11.207 11.207 0 0 0-4.175 5.697 22.887 22.887 0 0 0-1.208 7.374 23.4 23.4 0 0 0 1.429 8.554 10.63 10.63 0 0 0 4.44 5.46 12.437 12.437 0 0 0 6.524 1.81 10.952 10.952 0 0 0 7.23-2.46 12.623 12.623 0 0 0 4.01-7.314ZM567.253 205.276v-38.409h5.08v15.774H592.3v-15.774h5.08v38.409h-5.08v-18.102h-19.966v18.102ZM604.134 186.568q0-9.555 5.135-14.969a17.463 17.463 0 0 1 13.259-5.41 18.399 18.399 0 0 1 9.585 2.543 16.549 16.549 0 0 1 6.508 7.087 22.983 22.983 0 0 1 2.245 10.308 22.622 22.622 0 0 1-2.36 10.452 16.133 16.133 0 0 1-6.68 6.982 19.067 19.067 0 0 1-9.326 2.371 18.194 18.194 0 0 1-9.696-2.62 16.87 16.87 0 0 1-6.47-7.153 21.676 21.676 0 0 1-2.2-9.591Zm5.24.083q0 6.94 3.734 10.936a13.026 13.026 0 0 0 18.807-.038q3.706-4.037 3.712-11.45a19.61 19.61 0 0 0-1.589-8.185 12.202 12.202 0 0 0-4.638-5.427 12.607 12.607 0 0 0-6.85-1.925 13.008 13.008 0 0 0-9.288 3.707q-3.888 3.714-3.888 12.382ZM647.33 205.276v-38.409h17.026a22.677 22.677 0 0 1 7.81 1.037 8.523 8.523 0 0 1 4.268 3.657 10.89 10.89 0 0 1 1.6 5.785 9.667 9.667 0 0 1-2.647 6.894q-2.648 2.805-8.174 3.563a13.188 13.188 0 0 1 3.067 1.909 26.63 26.63 0 0 1 4.219 5.112l6.679 10.452h-6.392l-5.086-7.992q-2.225-3.458-3.668-5.29a11.616 11.616 0 0 0-2.575-2.57 7.741 7.741 0 0 0-2.322-1.02 15.344 15.344 0 0 0-2.83-.181h-5.895v17.053Zm5.08-21.455h10.925a16.378 16.378 0 0 0 5.449-.722 5.791 5.791 0 0 0 2.99-2.306 6.254 6.254 0 0 0 1.02-3.447 5.724 5.724 0 0 0-1.98-4.478q-1.978-1.754-6.25-1.754H652.41ZM684.106 192.938l4.792-.42a10.598 10.598 0 0 0 1.589 4.727 8.672 8.672 0 0 0 3.86 2.99 14.714 14.714 0 0 0 5.896 1.136 14.171 14.171 0 0 0 5.135-.86 7.14 7.14 0 0 0 3.314-2.372 5.515 5.515 0 0 0 1.087-3.287 4.99 4.99 0 0 0-1.048-3.16 7.732 7.732 0 0 0-3.458-2.266 66.723 66.723 0 0 0-6.839-1.87 35.215 35.215 0 0 1-7.412-2.4 10.396 10.396 0 0 1-4.098-3.574 8.768 8.768 0 0 1-1.352-4.781 9.787 9.787 0 0 1 1.65-5.438 10.28 10.28 0 0 1 4.82-3.839 18.359 18.359 0 0 1 7.048-1.307 19.287 19.287 0 0 1 7.534 1.373 10.848 10.848 0 0 1 5.013 4.048 11.544 11.544 0 0 1 1.887 6.05l-4.87.37a7.881 7.881 0 0 0-2.659-5.504q-2.267-1.861-6.695-1.858-4.608 0-6.718 1.687a5.08 5.08 0 0 0-2.112 4.076 4.37 4.37 0 0 0 1.494 3.403q1.473 1.34 7.667 2.741a50.465 50.465 0 0 1 8.499 2.449 11.683 11.683 0 0 1 4.952 3.916 9.557 9.557 0 0 1 1.594 5.465 10.456 10.456 0 0 1-1.754 5.775 11.55 11.55 0 0 1-5.04 4.219 17.592 17.592 0 0 1-7.402 1.505 22.062 22.062 0 0 1-8.736-1.522 12.198 12.198 0 0 1-5.527-4.572 12.927 12.927 0 0 1-2.111-6.9Z"/>
</svg>
