<svg data-name="Layer 1" xmlns="http://www.w3.org/2000/svg" viewBox="0 0 920 341.964">
    <path style="fill:#cb2238" d="m920 149.888-20.331 29.763H812.13l-54.725-22.929L460 32.248 162.595 156.722l-54.725 22.929H20.331L0 149.888h101.883L460 0l358.117 149.888H920z"/>
    <path d="m894.868 197.046-22.703 29.763h-69.184L460 341.964 117.019 226.809H47.835l-22.703-29.763h96.687l88.668 29.763L460 310.62l249.513-83.811 88.667-29.763h96.688zM319.452 143.81v-38.408h5.212l20.175 30.158v-30.158h4.87v38.409h-5.212l-20.172-30.18v30.18ZM356.49 125.103q0-9.555 5.135-14.968a17.463 17.463 0 0 1 13.258-5.41 18.392 18.392 0 0 1 9.586 2.542 16.556 16.556 0 0 1 6.51 7.087 22.983 22.983 0 0 1 2.243 10.308 22.623 22.623 0 0 1-2.36 10.452 16.118 16.118 0 0 1-6.68 6.982 19.06 19.06 0 0 1-9.326 2.372 18.19 18.19 0 0 1-9.693-2.62 16.877 16.877 0 0 1-6.472-7.154 21.675 21.675 0 0 1-2.201-9.591Zm5.24.083q0 6.94 3.734 10.936a13.029 13.029 0 0 0 18.81-.038q3.706-4.037 3.709-11.45a19.657 19.657 0 0 0-1.586-8.185 12.204 12.204 0 0 0-4.638-5.427 12.607 12.607 0 0 0-6.85-1.925 12.999 12.999 0 0 0-9.288 3.706q-3.889 3.715-3.892 12.383ZM397.118 132.284v-4.743h14.486v4.743ZM415.478 131.473l4.793-.42a10.596 10.596 0 0 0 1.586 4.728 8.68 8.68 0 0 0 3.863 2.989 14.714 14.714 0 0 0 5.896 1.136 14.182 14.182 0 0 0 5.135-.86 7.155 7.155 0 0 0 3.315-2.372 5.515 5.515 0 0 0 1.086-3.287 5.007 5.007 0 0 0-1.048-3.16 7.764 7.764 0 0 0-3.458-2.267 66.781 66.781 0 0 0-6.839-1.87 35.096 35.096 0 0 1-7.412-2.399 10.388 10.388 0 0 1-4.101-3.574 8.766 8.766 0 0 1-1.348-4.781 9.787 9.787 0 0 1 1.649-5.438 10.28 10.28 0 0 1 4.82-3.839 18.338 18.338 0 0 1 7.048-1.307 19.273 19.273 0 0 1 7.531 1.373 10.842 10.842 0 0 1 5.016 4.048 11.594 11.594 0 0 1 1.886 6.05l-4.87.37a7.883 7.883 0 0 0-2.66-5.504q-2.267-1.861-6.693-1.858-4.613 0-6.72 1.687a5.078 5.078 0 0 0-2.11 4.076 4.36 4.36 0 0 0 1.494 3.403q1.469 1.34 7.664 2.741a50.44 50.44 0 0 1 8.501 2.449 11.675 11.675 0 0 1 4.95 3.916 9.56 9.56 0 0 1 1.597 5.465 10.456 10.456 0 0 1-1.754 5.775 11.542 11.542 0 0 1-5.043 4.219 17.571 17.571 0 0 1-7.4 1.506 22.069 22.069 0 0 1-8.738-1.523 12.198 12.198 0 0 1-5.526-4.572 12.923 12.923 0 0 1-2.11-6.9ZM452.778 143.81v-38.408h14.486a35.137 35.137 0 0 1 5.844.37 11.63 11.63 0 0 1 4.74 1.793 9.416 9.416 0 0 1 3.08 3.706 12.5 12.5 0 0 1-1.953 13.534q-3.119 3.392-11.265 3.392h-9.85v15.614Zm5.083-20.147h9.927q4.927 0 6.996-1.83a6.545 6.545 0 0 0 2.071-5.163 6.948 6.948 0 0 0-1.219-4.125 5.703 5.703 0 0 0-3.21-2.267 21.76 21.76 0 0 0-4.743-.342h-9.822ZM488.14 143.81v-38.408h5.082v33.875h18.914v4.534ZM518.837 143.81v-38.408h5.086v38.409ZM560.067 130.342l5.082 1.285a17.133 17.133 0 0 1-5.75 9.553 15.86 15.86 0 0 1-10.153 3.287 18.23 18.23 0 0 1-10.099-2.532 15.785 15.785 0 0 1-5.92-7.318 26.133 26.133 0 0 1-2.03-10.297 22.649 22.649 0 0 1 2.291-10.468 15.72 15.72 0 0 1 6.525-6.784 19.061 19.061 0 0 1 9.312-2.317 15.735 15.735 0 0 1 9.693 2.935 15.223 15.223 0 0 1 5.477 8.25l-5.005 1.18a11.868 11.868 0 0 0-3.877-6.105 10.337 10.337 0 0 0-6.393-1.914 12.402 12.402 0 0 0-7.401 2.124 11.212 11.212 0 0 0-4.178 5.697 22.96 22.96 0 0 0-1.205 7.374 23.4 23.4 0 0 0 1.428 8.554 10.616 10.616 0 0 0 4.44 5.46 12.427 12.427 0 0 0 6.522 1.809 10.941 10.941 0 0 0 7.23-2.46 12.608 12.608 0 0 0 4.01-7.313ZM571.302 143.81v-38.408h27.769v4.534h-22.687V121.7h21.245v4.506h-21.245v13.071h23.578v4.534Z"/>
    <path style="fill:#cb2238"  d="m192.648 195.795 4.792-.42a10.597 10.597 0 0 0 1.586 4.727 8.681 8.681 0 0 0 3.864 2.99 14.713 14.713 0 0 0 5.895 1.136 14.184 14.184 0 0 0 5.135-.86 7.155 7.155 0 0 0 3.315-2.372 5.515 5.515 0 0 0 1.086-3.287 5.007 5.007 0 0 0-1.048-3.16 7.763 7.763 0 0 0-3.458-2.267 66.723 66.723 0 0 0-6.839-1.87 35.101 35.101 0 0 1-7.412-2.399 10.386 10.386 0 0 1-4.1-3.574 8.766 8.766 0 0 1-1.35-4.781 9.787 9.787 0 0 1 1.65-5.439 10.28 10.28 0 0 1 4.82-3.838 18.338 18.338 0 0 1 7.048-1.307 19.273 19.273 0 0 1 7.531 1.373 10.842 10.842 0 0 1 5.017 4.048 11.595 11.595 0 0 1 1.886 6.05l-4.87.37a7.883 7.883 0 0 0-2.661-5.504q-2.267-1.861-6.693-1.859-4.612 0-6.72 1.688a5.078 5.078 0 0 0-2.11 4.076 4.36 4.36 0 0 0 1.495 3.403q1.468 1.34 7.663 2.74a50.433 50.433 0 0 1 8.502 2.45 11.674 11.674 0 0 1 4.95 3.915 9.559 9.559 0 0 1 1.597 5.466 10.455 10.455 0 0 1-1.754 5.774 11.542 11.542 0 0 1-5.044 4.22 17.57 17.57 0 0 1-7.399 1.505 22.069 22.069 0 0 1-8.739-1.522 12.199 12.199 0 0 1-5.526-4.572 12.925 12.925 0 0 1-2.11-6.9ZM255.205 169.724h5.082v22.194a26.235 26.235 0 0 1-1.31 9.194 11.212 11.212 0 0 1-4.73 5.543 16.744 16.744 0 0 1-8.97 2.134 18.502 18.502 0 0 1-8.83-1.859 10.615 10.615 0 0 1-4.897-5.388 25.593 25.593 0 0 1-1.467-9.624v-22.194h5.08v22.166a21.563 21.563 0 0 0 .932 7.374 7.04 7.04 0 0 0 3.196 3.657 11.085 11.085 0 0 0 5.54 1.285q5.605 0 7.992-2.543 2.382-2.54 2.382-9.773ZM268.587 208.132v-38.408h14.486a35.148 35.148 0 0 1 5.844.37 11.633 11.633 0 0 1 4.74 1.793 9.416 9.416 0 0 1 3.08 3.706 12.501 12.501 0 0 1-1.953 13.534q-3.119 3.392-11.265 3.392h-9.85v15.613Zm5.083-20.147h9.927q4.927 0 6.996-1.831a6.545 6.545 0 0 0 2.071-5.162 6.949 6.949 0 0 0-1.218-4.126 5.703 5.703 0 0 0-3.21-2.267 21.762 21.762 0 0 0-4.744-.342h-9.822ZM304.21 208.132v-38.408h14.487a35.148 35.148 0 0 1 5.843.37 11.632 11.632 0 0 1 4.74 1.793 9.416 9.416 0 0 1 3.08 3.706 12.5 12.5 0 0 1-1.953 13.534q-3.119 3.392-11.265 3.392h-9.85v15.613Zm5.083-20.147h9.928q4.926 0 6.996-1.831a6.545 6.545 0 0 0 2.07-5.162 6.949 6.949 0 0 0-1.218-4.126 5.702 5.702 0 0 0-3.21-2.267 21.761 21.761 0 0 0-4.743-.342h-9.823ZM338.29 189.425q0-9.556 5.135-14.969a17.463 17.463 0 0 1 13.258-5.41 18.392 18.392 0 0 1 9.586 2.543 16.556 16.556 0 0 1 6.51 7.087 22.983 22.983 0 0 1 2.243 10.308 22.623 22.623 0 0 1-2.36 10.451 16.119 16.119 0 0 1-6.68 6.983 19.06 19.06 0 0 1-9.326 2.371 18.19 18.19 0 0 1-9.693-2.62 16.876 16.876 0 0 1-6.472-7.153 21.674 21.674 0 0 1-2.201-9.591Zm5.24.082q0 6.941 3.734 10.937a13.029 13.029 0 0 0 18.81-.038q3.706-4.038 3.709-11.45a19.656 19.656 0 0 0-1.586-8.185 12.203 12.203 0 0 0-4.638-5.427 12.606 12.606 0 0 0-6.85-1.925 13 13 0 0 0-9.288 3.706q-3.89 3.715-3.892 12.382ZM381.488 208.132v-38.408h17.026a22.677 22.677 0 0 1 7.81 1.037 8.524 8.524 0 0 1 4.268 3.657 10.892 10.892 0 0 1 1.6 5.785 9.668 9.668 0 0 1-2.648 6.894q-2.647 2.805-8.173 3.563a13.183 13.183 0 0 1 3.066 1.909 26.517 26.517 0 0 1 4.217 5.112l6.682 10.452h-6.393l-5.085-7.992q-2.225-3.458-3.667-5.29a11.563 11.563 0 0 0-2.579-2.57 7.757 7.757 0 0 0-2.319-1.02 15.385 15.385 0 0 0-2.83-.181h-5.895v17.052Zm5.08-21.454h10.925a16.39 16.39 0 0 0 5.45-.723 5.784 5.784 0 0 0 2.986-2.305 6.234 6.234 0 0 0 1.023-3.447 5.725 5.725 0 0 0-1.98-4.479q-1.977-1.753-6.249-1.753h-12.156ZM428.795 208.132v-33.874h-12.652v-4.534h30.442v4.534H433.88v33.874ZM492.816 194.664l5.083 1.285a17.133 17.133 0 0 1-5.75 9.553 15.86 15.86 0 0 1-10.154 3.287 18.23 18.23 0 0 1-10.098-2.532 15.785 15.785 0 0 1-5.921-7.318 26.134 26.134 0 0 1-2.03-10.297 22.65 22.65 0 0 1 2.292-10.468 15.72 15.72 0 0 1 6.524-6.784 19.061 19.061 0 0 1 9.313-2.317 15.735 15.735 0 0 1 9.693 2.935 15.223 15.223 0 0 1 5.476 8.25l-5.005 1.18a11.868 11.868 0 0 0-3.877-6.105 10.337 10.337 0 0 0-6.392-1.914 12.403 12.403 0 0 0-7.402 2.124 11.213 11.213 0 0 0-4.177 5.697 22.958 22.958 0 0 0-1.205 7.374 23.398 23.398 0 0 0 1.428 8.554 10.615 10.615 0 0 0 4.44 5.46 12.426 12.426 0 0 0 6.522 1.809 10.942 10.942 0 0 0 7.23-2.46 12.609 12.609 0 0 0 4.01-7.313ZM502.452 189.425q0-9.556 5.134-14.969a17.463 17.463 0 0 1 13.259-5.41 18.391 18.391 0 0 1 9.585 2.543 16.556 16.556 0 0 1 6.511 7.087 22.983 22.983 0 0 1 2.242 10.308 22.622 22.622 0 0 1-2.36 10.451 16.117 16.117 0 0 1-6.68 6.983 19.06 19.06 0 0 1-9.326 2.371 18.191 18.191 0 0 1-9.693-2.62 16.875 16.875 0 0 1-6.472-7.153 21.674 21.674 0 0 1-2.2-9.591Zm5.24.082q0 6.941 3.733 10.937a13.029 13.029 0 0 0 18.81-.038q3.707-4.038 3.71-11.45a19.655 19.655 0 0 0-1.586-8.185 12.202 12.202 0 0 0-4.639-5.427 12.607 12.607 0 0 0-6.85-1.925 12.999 12.999 0 0 0-9.287 3.706q-3.89 3.715-3.892 12.382ZM545.36 208.132v-38.408h5.082V203.6h18.915v4.533ZM600.45 169.724h5.082v22.194a26.235 26.235 0 0 1-1.31 9.194 11.213 11.213 0 0 1-4.729 5.543 16.744 16.744 0 0 1-8.97 2.134 18.502 18.502 0 0 1-8.83-1.859 10.615 10.615 0 0 1-4.898-5.388 25.593 25.593 0 0 1-1.467-9.624v-22.194h5.08v22.166a21.566 21.566 0 0 0 .932 7.374 7.042 7.042 0 0 0 3.196 3.657 11.086 11.086 0 0 0 5.54 1.285q5.605 0 7.992-2.543 2.382-2.54 2.382-9.773ZM613.675 208.132v-38.408h7.65l9.09 27.196q1.257 3.797 1.836 5.686.653-2.101 2.04-6.155l9.197-26.727h6.837v38.408h-4.898V175.99l-11.16 32.144h-4.586l-11.108-32.695v32.694ZM658.313 208.132v-38.408h5.212l20.175 30.158v-30.158h4.87v38.408h-5.212l-20.172-30.18v30.18ZM695.221 195.795l4.793-.42a10.597 10.597 0 0 0 1.586 4.727 8.681 8.681 0 0 0 3.864 2.99 14.713 14.713 0 0 0 5.895 1.136 14.184 14.184 0 0 0 5.135-.86 7.155 7.155 0 0 0 3.315-2.372 5.515 5.515 0 0 0 1.086-3.287 5.007 5.007 0 0 0-1.048-3.16 7.764 7.764 0 0 0-3.458-2.267 66.71 66.71 0 0 0-6.839-1.87 35.1 35.1 0 0 1-7.412-2.399 10.386 10.386 0 0 1-4.1-3.574 8.766 8.766 0 0 1-1.35-4.782 9.787 9.787 0 0 1 1.65-5.438 10.28 10.28 0 0 1 4.82-3.838 18.338 18.338 0 0 1 7.048-1.307 19.273 19.273 0 0 1 7.531 1.373 10.842 10.842 0 0 1 5.017 4.048 11.595 11.595 0 0 1 1.886 6.05l-4.87.37a7.883 7.883 0 0 0-2.661-5.504q-2.267-1.862-6.693-1.859-4.612 0-6.72 1.688a5.078 5.078 0 0 0-2.11 4.076 4.36 4.36 0 0 0 1.495 3.403q1.468 1.34 7.663 2.74a50.431 50.431 0 0 1 8.502 2.45 11.673 11.673 0 0 1 4.95 3.915 9.56 9.56 0 0 1 1.597 5.466 10.455 10.455 0 0 1-1.754 5.774 11.542 11.542 0 0 1-5.044 4.22 17.57 17.57 0 0 1-7.399 1.505 22.069 22.069 0 0 1-8.739-1.522 12.199 12.199 0 0 1-5.526-4.572 12.925 12.925 0 0 1-2.11-6.9Z"/>
</svg>
