<svg data-name="Layer 1" xmlns="http://www.w3.org/2000/svg" viewBox="0 0 920 341.964">
    <path style="fill:#cb2238" d="m920 149.888-20.331 29.763H812.13l-54.725-22.929L460 32.248 162.595 156.722l-54.725 22.929H20.331L0 149.888h101.883L460 0l358.117 149.888H920z"/>
    <path d="m894.868 197.046-22.703 29.763h-69.184L460 341.964 117.019 226.809H47.835l-22.703-29.763h96.687l88.668 29.763L460 310.62l249.513-83.811 88.667-29.763h96.688zM380.478 130.771l4.793-.419a10.597 10.597 0 0 0 1.588 4.727 8.672 8.672 0 0 0 3.86 2.989 14.713 14.713 0 0 0 5.897 1.136 14.173 14.173 0 0 0 5.134-.86 7.14 7.14 0 0 0 3.315-2.372 5.515 5.515 0 0 0 1.087-3.287 4.99 4.99 0 0 0-1.048-3.16 7.731 7.731 0 0 0-3.459-2.266 66.718 66.718 0 0 0-6.838-1.87 35.216 35.216 0 0 1-7.413-2.4 10.397 10.397 0 0 1-4.098-3.573 8.768 8.768 0 0 1-1.351-4.782 9.787 9.787 0 0 1 1.649-5.438 10.28 10.28 0 0 1 4.82-3.839 18.358 18.358 0 0 1 7.048-1.307 19.288 19.288 0 0 1 7.534 1.373 10.848 10.848 0 0 1 5.014 4.049 11.545 11.545 0 0 1 1.886 6.05l-4.87.37a7.881 7.881 0 0 0-2.658-5.505q-2.267-1.862-6.696-1.859-4.608 0-6.718 1.688a5.08 5.08 0 0 0-2.112 4.076 4.369 4.369 0 0 0 1.495 3.403q1.472 1.34 7.666 2.74a50.462 50.462 0 0 1 8.499 2.45 11.683 11.683 0 0 1 4.953 3.915 9.557 9.557 0 0 1 1.594 5.466 10.456 10.456 0 0 1-1.754 5.774 11.55 11.55 0 0 1-5.041 4.22 17.592 17.592 0 0 1-7.402 1.505 22.064 22.064 0 0 1-8.736-1.522 12.199 12.199 0 0 1-5.526-4.572 12.927 12.927 0 0 1-2.112-6.9ZM427.766 143.109v-33.875h-12.652v-4.533h30.439v4.533H432.85v33.875ZM450.87 143.109V104.7h27.769v4.533h-22.685v11.764H477.2v4.506h-21.245v13.071h23.578v4.534ZM486.658 143.109V104.7h27.77v4.533h-22.685v11.764h21.245v4.506h-21.245v13.071h23.578v4.534ZM522.127 143.109V104.7h5.085v33.874h18.912v4.534Z"/>
    <path style="fill:#cb2238"  d="M246.253 206.672v-38.408h14.488a35.133 35.133 0 0 1 5.841.37 11.646 11.646 0 0 1 4.743 1.792 9.434 9.434 0 0 1 3.078 3.706 12.486 12.486 0 0 1-1.953 13.535q-3.119 3.392-11.262 3.392h-9.85v15.613Zm5.085-20.147h9.927q4.923 0 6.994-1.831a6.547 6.547 0 0 0 2.073-5.162 6.948 6.948 0 0 0-1.218-4.126 5.72 5.72 0 0 0-3.21-2.267 21.762 21.762 0 0 0-4.744-.342h-9.822ZM307.08 168.264h5.086v22.194a26.165 26.165 0 0 1-1.313 9.194 11.207 11.207 0 0 1-4.727 5.542 16.754 16.754 0 0 1-8.973 2.135 18.51 18.51 0 0 1-8.83-1.859 10.615 10.615 0 0 1-4.897-5.388 25.65 25.65 0 0 1-1.467-9.624v-22.194h5.08v22.166a21.631 21.631 0 0 0 .932 7.374 7.046 7.046 0 0 0 3.198 3.656 11.068 11.068 0 0 0 5.538 1.286q5.609 0 7.991-2.543 2.383-2.54 2.383-9.773ZM320.543 206.672v-38.408h17.026a22.677 22.677 0 0 1 7.81 1.037 8.523 8.523 0 0 1 4.269 3.657 10.89 10.89 0 0 1 1.6 5.785 9.667 9.667 0 0 1-2.648 6.894q-2.647 2.805-8.174 3.563a13.188 13.188 0 0 1 3.067 1.908 26.627 26.627 0 0 1 4.22 5.113l6.678 10.451H348l-5.085-7.991q-2.226-3.458-3.668-5.29a11.616 11.616 0 0 0-2.576-2.57 7.74 7.74 0 0 0-2.321-1.02 15.344 15.344 0 0 0-2.83-.181h-5.896v17.052Zm5.08-21.454h10.926a16.378 16.378 0 0 0 5.45-.723 5.791 5.791 0 0 0 2.988-2.305 6.253 6.253 0 0 0 1.02-3.447 5.725 5.725 0 0 0-1.98-4.479q-1.977-1.753-6.248-1.753h-12.156ZM358.841 206.672v-38.408h5.08v33.875h18.918v4.533ZM389.59 206.672v-38.408h5.084v38.408ZM403.421 206.672v-38.408h5.212l20.175 30.158v-30.158h4.87v38.408h-5.212l-20.175-30.18v30.18ZM456.958 206.672v-38.408h5.085v15.774h19.96v-15.774h5.085v38.408h-5.085v-18.1h-19.96v18.1ZM491.175 206.672l14.748-38.408h5.476l15.719 38.408h-5.791l-4.479-11.632h-16.06l-4.22 11.632Zm11.08-15.773h13.021l-4.01-10.634q-1.836-4.848-2.724-7.964a49.577 49.577 0 0 1-2.068 7.335ZM530.962 206.672v-38.408h5.212l20.175 30.158v-30.158h4.87v38.408h-5.212l-20.175-30.18v30.18ZM587.57 191.61v-4.506l16.27-.027v14.251a28.704 28.704 0 0 1-7.732 4.495 22.916 22.916 0 0 1-8.173 1.506 21.799 21.799 0 0 1-10.28-2.427 15.989 15.989 0 0 1-6.983-7.004 22.056 22.056 0 0 1-2.355-10.242 23.72 23.72 0 0 1 2.344-10.468 15.596 15.596 0 0 1 6.746-7.22 21.142 21.142 0 0 1 10.136-2.355 20.099 20.099 0 0 1 7.534 1.346 12.574 12.574 0 0 1 5.279 3.76 16.636 16.636 0 0 1 2.906 6.288l-4.583 1.258a14.264 14.264 0 0 0-2.151-4.61 8.802 8.802 0 0 0-3.668-2.687 13.437 13.437 0 0 0-5.289-1.01 15.517 15.517 0 0 0-6.028 1.065 11.266 11.266 0 0 0-4.098 2.786 13.263 13.263 0 0 0-2.421 3.8 20.041 20.041 0 0 0-1.467 7.726 18.73 18.73 0 0 0 1.765 8.593 11.338 11.338 0 0 0 5.151 5.14 15.969 15.969 0 0 0 7.175 1.677 17.028 17.028 0 0 0 6.448-1.274 16.538 16.538 0 0 0 4.765-2.708v-7.153ZM611.275 206.672v-38.408h27.77v4.534h-22.69v11.764H637.6v4.506h-21.245v13.071h23.578v4.533ZM646.876 206.672v-38.408h17.026a22.677 22.677 0 0 1 7.81 1.037 8.523 8.523 0 0 1 4.269 3.657 10.89 10.89 0 0 1 1.6 5.785 9.667 9.667 0 0 1-2.648 6.894q-2.647 2.805-8.174 3.563a13.188 13.188 0 0 1 3.067 1.908 26.407 26.407 0 0 1 4.214 5.113l6.684 10.452h-6.392l-5.085-7.992q-2.225-3.458-3.668-5.29a11.505 11.505 0 0 0-2.58-2.57 7.773 7.773 0 0 0-2.317-1.02 15.427 15.427 0 0 0-2.83-.181h-5.895v17.052Zm5.08-21.454h10.926a16.4 16.4 0 0 0 5.45-.723 5.777 5.777 0 0 0 2.983-2.305 6.214 6.214 0 0 0 1.026-3.447 5.725 5.725 0 0 0-1.98-4.479q-1.977-1.753-6.249-1.753h-12.156Z"/>
</svg>
